<svg width="232" height="232" viewBox="0 0 232 232" fill="none" role="img" xmlns="http://www.w3.org/2000/svg">
<title>Skep</title>
<path d="M144.292 171.757C144.292 173.532 143.351 175.173 141.821 176.071L118.674 189.64C117.113 190.555 115.178 190.555 113.617 189.64L90.4713 176.071C88.9405 175.173 88 173.532 88 171.757V149.327C88 149.089 88.2748 148.949 88.4805 149.069L113.48 163.652C115.037 164.56 116.963 164.56 118.52 163.652L143.52 149.069C143.841 148.882 144.292 149.094 144.292 149.466V171.757Z" fill="#E4A23E"/>
<path d="M113.966 103.49C115.53 102.57 117.47 102.57 119.034 103.49L137.85 114.55C139.377 115.448 140.316 117.088 140.316 118.861V141.139C140.316 142.912 139.377 144.552 137.85 145.45L119.034 156.51C117.47 157.43 115.53 157.43 113.966 156.51L95.1504 145.45C93.6225 144.552 92.6843 142.912 92.6843 141.139V118.861C92.6843 117.088 93.6225 115.448 95.1504 114.55L113.966 103.49Z" fill="white"/>
<path d="M85.0039 60.3552C91.0039 68.3552 108.004 92.3552 92.0039 103.355C83.0039 110.355 85.0038 115.855 66.5037 115.355C55.5079 115.058 36.285 97.3553 29.5038 81.8553C26.0038 73.8553 24.0039 56.3553 25.5039 48.3553C27.0039 40.3551 33.504 27.8548 51.5039 33.3551C61.0039 36.258 73.004 46.3551 85.0039 60.3552Z" fill="#F8E6C9"/>
<path d="M146.999 60.3552C140.999 68.3552 123.999 92.3552 139.999 103.355C148.999 110.355 146.999 115.855 165.499 115.355C176.495 115.058 195.718 97.3553 202.499 81.8553C205.999 73.8553 207.999 56.3553 206.499 48.3553C204.999 40.3551 198.499 27.8548 180.499 33.3551C170.999 36.258 158.999 46.3551 146.999 60.3552Z" fill="#F8E6C9"/>
</svg>
